<?xml version="1.0" encoding="utf-8"?>
<!-- Generator: Adobe Illustrator 17.1.0, SVG Export Plug-In . SVG Version: 6.00 Build 0)  -->
<!DOCTYPE svg PUBLIC "-//W3C//DTD SVG 1.1//EN" "http://www.w3.org/Graphics/SVG/1.1/DTD/svg11.dtd">
<svg version="1.1" id="Layer_1" xmlns="http://www.w3.org/2000/svg" xmlns:xlink="http://www.w3.org/1999/xlink" x="0px" y="0px"
	 viewBox="0 0 260 64" enable-background="new 0 0 260 64" xml:space="preserve">
<path fill="#F1F2F2" d="M259.9,23c-0.2-0.2-0.5-0.3-0.7-0.3c-1.3,0.2-2.1-0.4-2.8-1.4c-0.1-0.1-0.3-0.1-0.5-0.2c0,0,0,0,0,0h0
	c-1.5-0.6-3-1.3-4.6-1.8c-2.9-1-5.9-2.1-9-2.5c-1.3-0.7-2.8-0.9-4.2-1.2c-1.8-0.3-3.4-1.1-5.3-0.9l0,0c-1.3-0.3-2.7-0.9-4-1
	c-3.2-0.3-6.3-1.2-9.4-1.8c-0.9-0.2-1.8-0.5-2.5-1.3c-0.3-0.4-0.8-0.7-1.4-0.6c-0.4-0.4-1-0.6-1.6-0.6l0,0l0,0l0,0c0,0,0,0,0,0
	c-2.6-1.4-5.5-1.8-8.4-2.1c-0.8-0.3-1.7-0.5-2.3-0.9c-1.4-0.9-2.8-1.2-4.4-1.2c-2.7,0-5.3,0-7.9-0.4c-1.6-0.2-3.2-0.4-4.8-0.6l0,0
	c0,0,0,0,0,0c0,0,0,0,0,0c0,0,0,0,0,0c-0.3-0.5-0.8-0.5-1.3-0.6c-0.6,0-1.2,0.1-1.8-0.1c-1.3-0.5-2.3-0.1-3.3,0.7v0h0
	c-1.1-1-1.6-1.2-2.8-1.1c-0.3,0-0.7,0-1,0.2c-0.8,0.3-1.5,0.2-2.3,0.1c-3.8-0.4-7.5-1.3-11.4-1.4c-2.6-0.1-5.2-0.6-7.8-0.8
	c-1.7-0.1-3.4-0.5-5.2-0.2C149,1.2,148.8,1,148.5,1c-4.7-0.7-9.4-0.8-14.1-0.9c-3.8-0.1-7.7,0.1-11.5,0.2c-2.4,0.1-4.9,0-7.3,0.2
	c-5.8,0.4-11.6,1-17.5,1c-0.4,0-0.9,0.1-1.2,0.4c0,0,0,0,0,0l-0.2,0c-0.8-0.6-1.7-0.4-2.5-0.4c-5.5,0.1-11.1,0.3-16.6,0.4l0,0
	c-1.9-0.1-3.9-0.1-5.8,0.1l0,0c-2.7-0.2-5.4-0.1-8,0c-0.5,0-1,0-1.5,0.3c-2,0-4,0-5.9,0.5c0,0,0,0,0,0c-0.3-0.1-0.7-0.2-1-0.2
	c-2.4,0.6-4.9,1-7.3,1.8l0,0c-0.3,0-0.7,0-1,0.1c-2.9,0.9-5.9,1.5-9,1.6c-1.4,0-2.7,0.4-4.1,0.9c-1.7,0.6-3.5,1.2-5.3,1.3
	c-1.7,0.1-3.4,0.7-5,1.4c-1.5,0.6-1.7,1.3-1.5,2.9c0.1,0.6,0.1,1.2,0.1,1.8h0c-0.9,0.6-1.9,1.1-3.1,1.1c-0.5,0-1,0.3-1.5,0.4
	c0,0.1-0.1,0.1-0.2,0.2c0.1-0.1,0.1-0.1,0.2-0.2c-1.3-0.1-2.4,0.4-3.5,0.8c-1.8,0.6-3.5,1.4-5.4,1.4c-0.2,0-0.4,0.2-0.7,0.4h0
	c-1.2-0.1-2.2,0.3-3.1,1c-1.2,0.2-2.3,0.7-3.4,1.3c-1.2,0.7-2.2,1.4-1.5,3.1c0.1,0.2,0.1,0.5,0,0.8c-0.3,1.4,0,2.8,0.2,4.1
	c0.3,2.3,1.2,4.4,3,6.1c2.1,2,4.6,3.1,7.5,3.1l0,0c2,1,4.1,1.7,6.3,1.9c0.8,0.2,1.5,0.1,2.1-0.4h0c0.8,0,1.5,0,2.3,0.2
	c1.2,0.3,2.4,0.4,3.5-0.2h0c1.9-0.1,3.5-1.1,5.3-1.6c0.2,0,0.3,0,0.5,0l0,0c0,0,0,0,0,0c0.6,0,1.2,0.1,1.8,0.1
	c0.4,0,0.6,0.1,0.8,0.5c-0.7,0.1-1.2,0.4-1.6,0.9c-1,0.8-2.1,1.3-3.5,1.3c-0.4,0-0.8,0.3-1.2,0.4c-0.3,0-0.7,0-1,0.1
	c-1.4,0.7-3,0.7-4.5,1c-1.7,0.3-3.4,0.2-5,0.9c-0.9,0.1-1.9-0.2-2.6,0.6c-1,0-2.1,0.1-2.9,0.7c-0.6,0.5-0.7,0.8-0.3,2
	c0.1,1.3,0.1,1.3,1,1.6l0,0c0.3,0.1,0.6,0.3,0.9,0.4c0.9,0.4,1,0.6,0.8,1.6c-0.1,0.4-0.3,0.8-0.6,1.1c-0.5,0.4-0.2,0.7,0.2,0.9
	c0.2,0.1,0.5,0.1,0.7,0.2c0.8,0.5,1.6,0.4,2.5,0.5c0.6,0.4,1.3,0.8,2,1.2c-0.3,0.3-0.6,0.5-0.9,0.7c-0.2,0.2-0.1,0.4,0,0.4
	c0.9-0.2,0.9,0.3,0.8,1c0,0.4,0.5,0.4,0.8,0.3c0.9,0.6,2,0.4,3.1,0.7l0,0c0,0,0,0,0,0c0.2,0.3,0.5,0.4,0.9,0.4c1.3,0,2.7,0,4,0h0
	c0,0.5-0.1,0.8-0.5,1.1c-0.2,0.1-0.2,0.3-0.1,0.4c0.6,0.5,1.9,0.5,2.2-0.1c0.5-1,1.2-1.3,2.2-1.3c0.4,0,0.9,0,1.3,0v0
	c1,0.1,2.1-0.1,3.1,0.3c1.5,0.5,3,0.5,4.5-0.3c0.5-0.3,0.8,0,0.9,0.5c0,0.2,0.1,0.6,0.3,0.7c0.4,0.1,0.6-0.2,0.7-0.5
	c0.2-0.6,0.3-0.9,1.1-0.7c0.6,0.2,1.2,0.2,1.7-0.4h0c1.2-0.5,2.5-0.9,3.6,0.3c0.4,0.4,0.7,0.3,1.1,0.2c1.5-0.5,3-0.9,4.4-1.5
	c0.7-0.3,1.3-0.1,2-0.1c0.2,0.3,0.3,0.6,0.5,1l0,0c-0.6,0.1-1.2-0.1-1.7,0.3c0.5,0.4,1.1,0.2,1.7,0.3c0,0,0,0,0,0
	c0.4,0.9,0.5,0.9,1.1,0.4c0.3-0.3,0.7-0.4,1.1-0.5l0,0c1.4,0,2.6-0.5,3.6-1.4c0,0,0,0,0,0c1.4,0.2,2.7-0.8,4.1-0.7h0
	c0.9,0.4,1,0.5,0.6,1.1c-0.2,0.5-0.6,0.8-1,1c-0.3,0-0.7,0-0.7,0.3c0,0.3,0.4,0.2,0.7,0.3c0.7-0.2,1.4-0.4,2.2-0.5c0.3,0,0.7,0,1,0
	c0.6,0,1.2,0,1.8,0c0.5,0,1,0,1.4-0.5l0,0c0,0,0,0,0,0c0.2,0,0.3-0.1,0.5-0.1l0,0c0.4,0,0.7,0,1.1,0.1l0,0c0.4,0,0.8,0.1,1.1,0.5
	c-0.2,0-0.3,0.1-0.5,0.1c-0.3,0.1-0.7,0.2-0.6,0.6c0.1,0.5,0.5,0.4,0.8,0.2c0.6-0.3,1.3-0.4,1.9-0.4c0.3,0.1,0.7,0.1,0.9,0.3
	c0.7,0.8,0.9,0.2,1.2-0.3c0.5-0.7,1.2-0.5,1.9-0.5c0.8-0.1,1.7,0.2,2.4-0.5c0,0,0,0,0,0v0c0.7-0.2,1.5,0.1,2.1-0.5c0,0,0,0,0,0
	c1.1-0.1,2.2,0.2,3.3-0.5c0,0,0,0,0,0l0.1,0.1l0.2,0c0,0,0,0,0,0c0.2,0.2,0.4,0.1,0.6-0.1l0,0c0.5,0,1,0,1.6-0.1l0,0
	c0.4,0.1,0.9,0.2,0.7,0.8c-0.1,0.4,0,0.7,0.4,0.9c0.9,0.1,1.8,0,2.6-0.6h0h0c0.4-0.2,1.2-0.4,1.2-0.7c0.2-1,0.9-0.7,1.5-0.9l0,0v0
	c0.5,0.3,1.1,0.4,1.7,0.5c1.9,0.3,3.7-0.4,5.6-0.5l0,0v0c0.4,0.2,0.6,0.6,0.5,1h0c-0.6,0-1.2,0-1.6,0.5c-0.2,0.2-0.3,0.4-0.5,0.5
	c0,0,0,0,0,0s0,0,0,0l0,0c0,0,0,0,0,0c-1.6-1.1-2.5,0.4-4.1,0.9c1.7,0.3,3,0.4,4.1-0.3c0.7-0.2,1.4-0.4,2.1-0.6v0c0,0,0,0,0,0
	c0.4,0,0.7-0.1,1.1-0.1c0.4,0.1,0.8,0,1.1-0.3c0,0,0,0,0,0c0.6,0,1.2,0.1,1.8,0c0.6-0.1,0.6-0.5,0.3-0.9c0.2,0,0.3-0.1,0.5-0.2
	c0.2,0.1,0.3,0.1,0.5,0.1v0c0.2,0.3,0.6,0.5,0.9,0.3c0.9-0.5,1.8-0.4,2.8-0.4c0.8,0.1,1.5,0.1,2.3-0.3c0.5-0.2,1-0.3,1.5-0.1
	c0.2,0.1,0.5,0.3,0.6,0.4c0.1,0.3-0.1,0.4-0.4,0.5c-0.3,0.1-0.7,0.4-0.5,0.7c0.1,0.3,0.4,0.6,0.7,0.7c0.8,0.3,1.5,0,2.2-0.4l0,0
	c0.1,0.3,0.1,0.8,0.4,0.9c0.5,0.1,1,0.2,1.5,0.1c0.3-0.1,0.1-0.4,0-0.5c-0.1-0.1-0.2-0.3-0.3-0.4l0,0c0.6,0,1.2,0,1.6-0.4
	c0.8-0.3,0.8-0.3,0.5-1.1c0,0,0,0,0,0l0,0l0,0c0,0,0,0,0,0l-0.1,0c0.3,0,0.7-0.1,1-0.1l0,0c0.8-0.3,1.7-0.5,2.6-0.5
	c0.5,0,1,0.1,1.5,0.1c0.5,0,1,0.1,1.3,0.6c-0.7,0.3-1.4,0.5-2.2,0.5c-0.7,0-1.3,0.3-1.5,1c0,0.5-0.1,1-0.1,1.5
	c-0.1,0-0.3,0.1-0.4,0.1v0c-1.3-0.3-2.5,0.1-3.7,0.4c-0.2-0.3-0.4-0.3-0.6,0l0,0c-0.2,0-0.3,0-0.5,0c0,0,0,0,0,0
	c-0.2-0.1-0.4-0.3-0.6-0.4l0,0l0,0c-0.5,0-1,0-1.5,0c0,0,0,0,0,0c-0.9,0.9-1.4,2.1-2.7,2.6c0.3,0.8,1,0.5,1.6,0.5
	c0.9-0.7,1.8-1.3,2.6-2c1.7-0.2,3.5-0.4,5.2-0.6c0,0,0.1-0.2,0.1-0.2c0.1,0,0.1,0,0.2,0c-0.1,0.1-0.2,0.1-0.3,0.2
	c0.2,0.5,0.6,0.9,0.5,1.5c-0.7,0-1.4,0-2,0.1c-0.5,0.1-1,0.3-1.3,0.6c-0.3,0.2-0.1,0.6,0.2,0.8c0,0,0,0,0,0h0h0h0c0,0,0,0,0,0
	c0,0.4,0.1,0.8,0.5,1c0.5,0.2,1.1,0.4,1.6,0.6c0,0,0,0,0,0c1.6,0,3.2,0.1,4.7-0.6l0,0c0.2,0,0.4,0,0.6,0l0,0c0.3,0.6,0.7,0.6,1,0h0
	c0,0,0,0,0,0c0.4-1,1.2-1.1,2.1-1c-0.2-0.1-0.4-0.2-0.5-0.3c0.2,0,0.3,0.1,0.5,0.3c0.2,0,0.4,0,0.5,0c0.3,0,0.7,0,1,0h0
	c1.1,0.2,2.1-0.3,3.2-0.5c0.2,0,0.5,0,0.7,0c0.1,0,0.3-0.1,0.4-0.2c-0.1-0.1-0.3-0.2-0.4-0.2c-0.2,0-0.5,0-0.7,0v0
	c-0.8,0-1.6,0-1.6-1.1c0.8,0,1.5,0,2.3,0c1,0,1.8,0.3,2.4,1c-0.2,0.5,0.1,0.6,0.5,0.6c3.3-0.1,6.7,0,10-0.6c0.7,0,1.4,0,2.1,0.1
	c0.8,0.6,0.8,0.6,1.6,0l0,0c0.7,0.3,1.4,0.9,2.1,0c0,0,0,0,0,0c0.3,0,0.7,0,1,0c0.2,0.3,0.4,0.3,0.5,0l0,0l0.3,0l0.3,0h0h0
	c0.5,0.6,1.3,0.5,1.9,0.5c3,0,6.1,0,9.1,0c4.2,0,8.4,0,12.6,0c0.7,0,1.4,0.1,2.1-0.3c0.2-0.1,0.7-0.1,0.6-0.6
	c-0.5-0.3-1-0.1-1.5-0.2l0,0h0c0-0.2,0-0.3,0-0.5h0h0c1-0.7,2.1-0.4,3.2-0.6c0,0,0,0,0,0c0,0,0,0,0,0c1.7,0,3.4,0,5.1,0
	c0.8,0,1.6,0.1,2.2-0.4c0,0,0,0,0,0c0.7,0.1,1.5,0,2.2,0.3c0.8,0.3,1.6,0.3,2.5,0.1c0.7,0.1,1.4,0.1,2.1,0.2v0
	c2,0.8,4.1,0.3,6.1,0.2c2.4-0.2,4.8-0.7,7.2,0c0.3,0.1,0.7,0.2,1,0.1c1.3-0.6,2.7-0.2,4.1-0.3c1.5,0.8,3.2,0.6,4.7,0.4
	c0.7-0.1,0.6,1,1.1,0.5c0.6-0.6,1.3-0.6,1.9-0.3c1.3,0.5,2.6,0.3,3.9,0.2c0.8-0.1,1.5-0.6,2.3-0.5c0.7,0.1,1.2,0.9,2,1.1l0,0
	c0,0,0,0,0,0c0.5,0,1,0.1,1.5,0.1c0.1,0.7,0.6,1,1.3,1c0.6,0,1.4,0.3,1.8-0.5c0.1-0.1,0.1-0.3,0.1-0.5h0h0l0,0
	c0.5-0.1,1.1,0.2,1.6-0.3c-0.7-0.7-1.4-0.8-2.2-0.7l0,0c0,0,0,0,0,0c-1-0.2-2.1-0.4-3.1-0.6h0c0,0,0,0,0,0c-0.5-0.5-1.2-0.9-0.8-1.9
	c0.3-0.5-0.6-0.7-0.8-1.2h0c0.6-0.7,1.4-0.3,2-0.4c0,0,0,0,0,0c0.4,0.4,0.8,0.6,1.4,0.7c1.8,0.2,3.4-0.3,4.5-1.9
	c0.6-1,1.2-1.9,2.6-1.6c-0.3-0.6-0.7-1-1.3-1c-1.1,0-2-0.4-2.7-1.2c-0.4-0.5-1.1-0.5-1.7-0.5c-0.7-0.2-1.3-0.6-2.1-0.5
	c-0.4-0.5-1-0.5-1.6-0.5h0c-0.2-0.2-0.4-0.3-0.5-0.5c-0.3-0.7-0.9-0.6-1.5-0.6h0l0,0c-0.1-0.3-0.3-0.4-0.6-0.4l0,0l0,0
	c-0.5,0-0.9-0.1-1.4-0.1c-0.3-0.2-0.5-0.4-0.8-0.5c-0.6-0.3-0.8-0.7-0.7-1.4h0c0.1,0,0.3,0,0.4-0.1c1.1,0.1,1.2-0.7,1.4-1.5
	c0-0.1-0.2-0.3-0.3-0.3c-0.3,0-0.7,0.1-1,0.1l0,0c0-0.3-0.1-0.5-0.1-0.8c0.1-1.9,0.5-3.6,2.4-4.7c0.6-0.4,1.5-0.9,1.8-1.7
	c0.9-0.9,0.3-1.6-0.3-2.3c-0.4,0.7-0.3,1.3-0.2,1.8l0,0h0c-0.2,0.3-0.5,0.5-0.9,0.6c-0.3,0-0.5,0.2-0.7,0.4h0
	c-0.1,0.1-0.2,0.1-0.4,0.1c-1.6-0.6-1.6-0.6-1.3-2c0.1-0.4,0.1-0.8,0.1-1.2c0.2-0.1,0.6-0.1,0.6-0.2c0.3-0.4-0.1-0.8-0.4-1.1
	c-0.6-0.4-1.3-0.3-1.9-0.2c0.1,0.1,0.3,0.1,0.4,0.2c-0.2,0-0.3-0.1-0.4-0.2c-0.8-0.2-1.5-0.5-2.1-1c-0.4-0.3-0.7-0.6-0.6-1.1
	c0.3-2.1-0.1-4.3,0.2-6.4c0.2-0.2,0.4-0.3,0.5-0.5c0.7,0,1.4,0,2,0c0,0,0,0,0,0c1,0.6,1.9,0.7,2.9,0c0.5-0.4,1.1-0.7,1.7-0.4
	c1.3,0.6,2.3,0.2,3.4-0.5c0.3-0.2,0.7-0.1,1-0.2c1.1,0,2,0.8,3.2,0.5c1.4,0.4,2.7,0.9,4.2,0.6h0c0.6,0,1.1,0.3,1.5,0.7
	c0.3,0.3,0.7,0.4,1.1,0.4c0.6,0.1,1.1,0.2,1.5,0.7c0.3,0.4,0.7,0.4,1.1,0.3c0.4,0.3,0.9,0.5,1.3,0.8c0.7-1-0.2-1.9-0.2-2.8l0,0l0,0
	h0c0.3-0.2,0.4-0.4,0.5-0.8c0-0.4,0.1-0.8,0.1-1.2l0,0c0.5-0.1,1,0.1,1.5,0.4c0.2,0.2,0.3,0.4,0.5,0.5c1.3,0.8,2.9,0.4,4.3,0.8
	c0.1,0,0.3-0.2,0.3-0.4C260,23.5,260,23.2,259.9,23z"/>
</svg>
