<?xml version="1.0" encoding="utf-8"?>
<!-- Generator: Adobe Illustrator 17.1.0, SVG Export Plug-In . SVG Version: 6.00 Build 0)  -->
<!DOCTYPE svg PUBLIC "-//W3C//DTD SVG 1.1//EN" "http://www.w3.org/Graphics/SVG/1.1/DTD/svg11.dtd">
<svg version="1.1" id="Layer_1" xmlns="http://www.w3.org/2000/svg" xmlns:xlink="http://www.w3.org/1999/xlink" x="0px" y="0px"
	 viewBox="0 0 279.1 63.8" enable-background="new 0 0 279.1 63.8" xml:space="preserve">
<path fill="#F1F2F2" d="M1.1,42.7c0.2-0.1,0.4-0.1,0.5-0.2l0,0l0,0C3,42,4.3,41.3,5.7,41.2c0.4-0.8,1.3-0.4,1.8-0.8
	c0.6-0.5-0.2-1.5,0.4-2.1c0.2-0.2,0.5-0.3,0.8-0.4v0c0.4-0.6,1-0.6,1.6-0.7c0.9-0.2,1.7-0.3,2.4-1.1c0.8-1,1.8-1.2,3-0.7
	c0.4,0.2,1,0,1.5,0c0.3-0.4,0.7-0.7,1.2-0.7c-0.1-0.5-0.6-1-0.3-1.5c0.2-0.3,0.5-0.6,0.9-0.8c0.8-0.4,1.7-0.7,2.5-1l0,0
	c-1-1-2.1-1.5-3.4-2c-1.2-0.4-2.5-0.3-4-0.3c1.2-1.4,2.7-0.9,3.8-1.8v0c0.5-0.6,1.1-0.8,1.8-0.7c2.4-1.4,4.9-2.5,7.4-3.4
	c0.8-0.3,1.5-0.6,2.3-0.6h0c0.7-0.7,1.7-0.8,2.5-0.9c2.9-0.5,5.5-1.6,8.1-2.9c0.7-0.4,1.4-1,2.2-0.6l0,0h0c2.1-0.7,4.3-1.2,6.5-1.3
	c1.1-1.1,2.4-1.2,3.7-1.1c0.2,0,0.5-0.1,0.7-0.1h0l0,0c0.3-0.5,0.8-0.6,1.3-0.7c4.3-0.7,8.3-2.3,12.5-3.4c4-1,7.8-2.6,12-2.5
	c4.1-1.2,8.6-0.8,12.6-2.9c3.7-0.7,7.3-1.5,11-1.9c5.1-0.6,10.2-1.1,15.2-1.8c2.1-0.3,4.2-0.6,6.3-0.8c3.7-0.3,7.4,0,11.1-0.5
	c3-0.4,6-0.4,9-0.5c1.7,0,3.4,0.1,5.1-0.3c0.7-0.2,1.4-0.2,2.1,0c1.3,0.3,2.6,0.2,3.9,0c3.7-0.3,7.4,0.1,11.1-0.4c0.1,0,0.2,0,0.3,0
	c2.4,0.4,4.8,0.2,7.1,0.3c2.1,0.1,4.2-0.1,6.2,1c0.1-0.2,0.3-0.2,0.4-0.1l0,0h0c0.5-0.5,1.1-0.5,1.7-0.5c3.9,0.3,7.8,0.5,11.7,0.9
	c2.4,0.2,4.7,0.8,7.2,0.5c1-0.1,2,0.1,3,0.2c0.9,0.1,1.8,0.5,2.6,0.6c4,0.2,8,0.4,12,0.8c5.5,0.5,11,0.9,16.3,2.5
	c1.4,0.4,2.9,0.7,4.5,0.6c1.5-0.1,3,0.1,4.4,0.8v0v0c1.1-0.1,2.2-0.1,3.1,0.6l0,0c0.2-0.1,0.3,0,0.5,0.1c1.1-0.1,2.1-0.1,3.1,0.7
	c0,0,0,0,0,0c0.4,0.1,0.7,0.1,1.1,0.2c1.7,0.1,3.4,0,4.7,1.4c1,0.2,2,0.5,3,0.7c0,0,0,0,0,0c0,0,0,0,0,0c1.3,0.1,2.4,0.7,3.1,1.9
	c0,0,0,0,0,0c0.2,0,0.3,0.1,0.5,0.1c0.6,0.2,1,0.6,1.2,1.3h0c2.4,0.8,3.7,2.7,4.2,5.4c0,0,0,0,0,0c0.4,0,0.7,0.1,1.1,0.1l0,0
	c0.5,0.3,1.4,0.5,1.4,1.1c0,1.3,0.6,2,1.5,2.7c0.4,0.3,0.6,0.9,0.6,1.5c-0.2,2.4,1.6,4,2.3,6c1.4,0.7,0.8,1.9,0.9,3.1
	c0.1,0.9,0.2,1.7-0.3,2.5c0,0.2,0,0.4,0.1,0.6l0,0c1.2,0.5,1.8,1.5,1.3,2.8c-0.4,1.3,0.1,1.9,1,2.3c0.3,0.1,0.4,0.4,0.8,0.8
	c-0.8,0.1-1.4,0.2-2,0.2v0l0,0c0,0-0.1,0-0.1,0.1c0,0,0.1,0,0.1-0.1c0,0.2,0,0.3,0,0.5c0.7,0.1,1.1,0.5,1,1.3
	c-0.2,0.9-0.6,1.8-0.5,2.8l0,0l0,0c0.1,0.8-0.1,1.6-0.6,2.1c-1,1.1-2,2.1-3,3.2c-0.5,0.9-1.1,1.4-1.9,2c-0.4,0.8-0.9,1.3-1.8,1.4
	l0,0h0c-0.5,0.6-1.1,0.7-1.8,0.8c-2.8,1.2-5.7,2.5-8.5,3.7c-0.3,0.3-0.6,0.7-0.9,0.8c-2.5,0.9-5,1.6-7.6,1.2c-1.4-0.2-2.8,0-4.2-0.1
	c-4.2-0.3-8.3,0.1-12.5-0.8c-5.2-1.2-10.5-1.6-15.7-2.3c-4.1-0.5-8.1-1.1-12.2-1.1c-0.6,0-1.2,0-1.7-0.5h0c-1.7,0-3.4-0.3-5.1,0
	c-4,0.6-8,0.1-11.9,0.4c-0.8,0.1-1.6,0-2.3-0.6l0,0l0,0c-1.2,0.2-2.4,0.2-3.6-0.1c-0.9,0.1-1.8,0.4-2.7,0.2
	c-1.6-0.3-3.2-0.1-4.8-0.1c-2.4,0-4.8-0.3-7.2,0.1c-0.6,0.1-1.2-0.1-1.8-0.2c-3.2-0.3-6.4-0.8-9.6-0.9c-7.2-0.3-14.4-0.4-21.6-0.6
	c-0.6,0-1.2,0-1.7-0.4c-1.3,0.1-2.6,0.3-3.9,0c-0.8-0.2-1.6-0.2-2.4-0.2c-3.2-0.1-6.4-0.1-9.5-0.3c-1,0-2-0.4-3-0.4
	c-4.7-0.2-9.3,0.1-13.9-0.9c-0.3-0.1-0.6-0.1-0.9,0c-1.3,0.7-2.5,0.1-3.8-0.1c-2.8,0-5.6-0.2-8.4,0.3c-1,0.2-2,0.1-3-0.1
	c-3.9-0.8-7.7-0.2-11.6,0.4c-2.1,0.3-4.2,0.7-6.1-0.6c-0.3-0.2-0.8-0.2-1.2-0.2c-1.5,0.3-3,0.1-4.4,0.6c-1.6,0.6-3.3,0.7-5,1h0
	c-0.3,0.3-0.7,0.5-1.1,0.5c-1.7,0.1-3.4-0.3-5-0.6l0,0l0,0c-0.5,0.7-1.2,0.7-1.9,0.7c-0.8,0-1.6-0.1-2.4,0.1c-1.4,0.5-3,0.3-4.4,0.9
	c-1.6,0.8-3.1-0.6-4.7-0.6c-0.4,0-0.8,0-1.1-0.1c0.2-0.4,0.4-0.9,0.6-1.3c-2-0.2-4,0.5-6,0.6c-1.3,0.8-2.4,1-3.4-0.6
	c-0.3-0.5-0.8-0.8-1.3-0.7c-2.3,0.2-4.5-0.8-6.8-0.9c-0.2,0-0.4,0.1-0.7,0.1l0,0c-0.7,0.6-1.5,0.5-2.3,0.6c-0.8,0.1-1.7,0-2.1-0.8
	c-0.6-1.2-1.4-1.3-2.4-1.3c-1.8,0-3.5-0.1-5.3-0.2c-0.3,0-0.5-0.2-0.5-0.6c0-0.2,0.2-0.4,0.4-0.5c0.3-0.1,0.6-0.2,0.8-0.3
	c0.5-0.7,1.1-0.8,1.8-0.7c0-0.4,0-0.9,0-1.3c-0.2-0.1-0.3-0.1-0.5-0.2l0,0v0c-0.4,0-0.6-0.2-0.8-0.5l0,0c-0.3,0-0.6,0-0.8-0.1
	c-0.1,0-0.2-0.3-0.4-0.4C5.8,48.1,5.9,48,6.1,48c0.5,0,0.9,0,1.4,0c0,0,0,0,0,0l0,0c-0.2-0.6-0.7-0.5-1.2-0.7l0,0l0,0c-1,0-2,0-3,0
	c-0.7,1-1.6,0.7-2.4,0.6c-0.1,0-0.3-0.3-0.3-0.4c0-0.2,0.1-0.4,0.2-0.5c0.6-0.4,1.3-0.2,2-0.2l0,0l0,0c0.4-0.1,0.7-0.3,0.9-0.7l0,0
	c-0.6-0.6-1.4-0.7-2.2-0.7c-0.7,0-1.4-0.3-1.5-1.2C-0.1,43.2,0.6,43.1,1.1,42.7z"/>
</svg>
