<?xml version="1.0" encoding="utf-8"?>
<!-- Generator: Adobe Illustrator 17.1.0, SVG Export Plug-In . SVG Version: 6.00 Build 0)  -->
<!DOCTYPE svg PUBLIC "-//W3C//DTD SVG 1.1//EN" "http://www.w3.org/Graphics/SVG/1.1/DTD/svg11.dtd">
<svg version="1.1" id="Layer_1" xmlns="http://www.w3.org/2000/svg" xmlns:xlink="http://www.w3.org/1999/xlink" x="0px" y="0px"
	 viewBox="0 0 292 65" enable-background="new 0 0 292 65" xml:space="preserve">
<path fill="#FFFFFF" d="M296.9-63.4c-0.5-0.4-1.1-0.3-1.7-0.3l0,0l0,0c-0.3-0.2-0.6-0.4-1-0.6l0,0h0c-0.3-0.6-0.9-0.8-1.5-0.9
	c-0.6,0-1.2,0-1.9,0c-2.2,0-4.4,0.1-6.6,0.1c-0.4,0-1,0-1.1-0.5c-0.4-1.2-1.4-0.8-2.2-0.9h0c0.3-0.4,0.6-0.7,0.9-1.1c0,0,0,0,0,0
	c0.3,0,0.8-0.1,0.8-0.5c-0.1-0.7,0.2-1.1,0.8-1.4c0.4-0.2,0.7-0.5,1-0.8l0,0l0.2,0l0.2,0c0.3,0,0.7,0,1-0.1c0.2,0,0.4-0.2,0.6-0.3
	c-0.1-0.2-0.2-0.4-0.4-0.6c-0.8-0.8-0.8-0.8,0.2-1.2c0.9,0.1,1.8,0.2,2.7,0.4c0,0,0,0,0,0c0.3,0,0.7,0,1,0l0,0l0,0
	c0.9,0.2,1.8,0.4,2.6,0.6c0.6,0.6,1.4,0.4,2.4,0.3c-0.6-0.4-1.1-0.7-1.7-1.1c0,0-0.1,0.1-0.2,0.2v0c-1.1-0.1-2.1-0.6-3.2-0.3
	c-0.1-0.1-0.3-0.1-0.5-0.2v0c-1-0.7-2.2-0.2-3.2-0.3h0c-0.7,0.1-1.5,0.1-2.2,0.2c0,0,0,0,0,0l0,0c-1-0.1-2.1,0-3-0.6
	c0.2-0.3,0.3-0.6,0.5-0.9l0,0c1.1,0.3,1.5-0.5,2.1-1.1c-0.3-0.1-0.4-0.1-0.6-0.1c-1-0.2-1-0.2-0.5-1.2c0.1-0.2,0.1-0.3-0.1-0.5
	c-0.4-1-0.4-1-1.7-0.9c-0.2,0-0.3-0.1-0.4-0.1h0l0,0c0.2-0.2,0.4-0.4,0.6-0.6l0,0c0,0,0,0,0,0c0.2,0,0.4,0,0.5,0
	c0.9-0.2,1-0.3,0.7-0.9c-0.4-0.8-0.9-1.3-1.7-1.4c-1.5-0.3-2.9-0.7-4.4-0.7c-1.2-0.4-2.5-0.8-3.8-0.7c-2.3-0.4-4.6-0.7-6.9-1.3
	c-1.9-0.5-3.9-0.8-5.9-1c-2.8-0.8-5.6-0.8-8.4-0.6c-0.5,0-0.6,0.5-0.7,1c0,0,0,0,0,0l0,0c-0.7,0.2-1.4,0-2,0.5c-0.9,0.8-1.9,1-3,1.3
	c-0.3,0.1-0.6,0.3-0.9,0.5c-0.7,0.1-1.3,0.1-2,0.2c0,0,0,0,0,0c0,0,0,0,0,0c-0.1-0.1-0.2-0.1-0.4-0.1c0,0,0,0,0,0
	c-0.4-0.3-0.8-0.3-1.2-0.3c-0.8,0-1.6,0-2.3-0.1c-0.7-0.1-1.2-0.2-0.7-1.1c0.2-0.4-0.2-0.4-0.4-0.4c-0.3,0-0.5,0.1-0.8,0.1l0,0
	c-2.3-0.6-4.6-0.8-7-1c-2.8-0.2-5.6-0.1-8.4-0.1c-1.2-0.1-2.4-0.3-3.7-0.4h0c-0.4-0.2-0.7-0.4-1.1-0.5c-0.1-0.6-0.4-0.9-1.1-0.9
	c-0.9,0-1.9,0.1-2.8,0.1c0,0,0,0,0,0c0,0,0,0,0,0c-1.3,0-2.6-0.1-3.9-0.2c-1.3-0.2-2.6-0.1-3.9-0.2h0c-1.6-0.4-3.2-0.4-4.7-0.3
	c0,0,0,0,0,0c-0.5-0.4-1.2-0.3-1.8-0.3c-2.5-0.2-4.9-0.3-7.4-0.5c-4.4-0.3-8.8-0.7-13.2-0.5l0,0c-1.8-0.3-3.6-0.8-5.4-0.5
	c-0.6,0.1-1.2,0-1.8-0.4c-0.7-0.6-1.6-0.7-2.5-0.5c-0.4,0.1-0.9,0.2-1.3,0.1c-2.9-0.6-5.8-0.1-8.7-0.1l0,0l0,0
	c-0.7-0.4-1.4-0.2-2.1-0.2c-7,0.3-14.1,0-21.1,0.3c-5.1,0.2-10.2,0.2-15.3,0.3c-2.2,0-4.4,0.2-6.6,0.3c-4,0.1-8,0.2-12.1,0.3
	c-2.9,0.1-5.8,0.3-8.6,0.4c-0.3,0-0.7,0-1,0c-0.4,0-0.7,0-1.1,0l0,0l0,0c-0.7,0-1.4,0.1-2.1,0.1c-2.7-0.1-5.3,0-8,0.3
	c-2.3,0.1-4.6,0.2-6.9,0.3c-2.7,0-5.4,0-8.1,0.6c-3.2,0.7-6.5,1.6-9.8,1.7c-0.4,0-0.9,0.2-1.3,0.3c-2.8,0.5-5.5,1-8.3,1.5
	c-2.3,0.4-4.5,0.6-6.8,0.9c-0.2,0-0.4,0-0.5,0l0,0l0,0c-0.3,0-0.7-0.1-1-0.1c-3.9,0.6-7.8,1.1-11.6,1.8c-2.1,0.4-4.3,0.7-6.3,1.7
	c-1.7,0.2-3.3,1-4.9,1.7c-0.8,0.4-1.5,0.9-1.9,1.6c-0.7,0-1.1,0.4-1.6,0.9c-1.8,1.7-3.3,3.6-4.1,6c-0.4,1.3-0.9,2.6-1.3,4
	c-0.7,2.5-0.8,4.9,0.1,7.4c0,1.2,0.1,2.4-0.1,3.6C5.2-52.6,5-50.9,6-49.4c0,1,0.5,1.8,1,2.7c0.9,1.5,1.3,3,1.3,4.7
	c0,0.7,0,1.4,0.5,2c0.8,1,1,2.2,1.4,3.3c0.8,2.5,2,4.9,4.5,6.2c1,0.5,1.9,1.2,2.9,1.8c1.4,0.9,2.8,1.8,4.6,1.9c0,0,0,0,0,0
	c0.8,0.6,1.7,0.4,2.5,0.4c4.3-0.1,8.6-0.6,12.8-1.1c0.2,0,0.4-0.2,0.7-0.4c0,0,0,0,0,0c1.5,0,2.9-0.3,4.4-0.5c2.3-0.4,4.7-0.8,7-0.9
	c5.9-0.3,11.9-0.1,17.8-1.2c0,0.1,0.1,0.1,0.2,0c0.2,0,0.3,0,0.5,0c2.7-0.1,5.5-0.1,8.2-0.3c4.5-0.2,8.9-1,13.4-0.9
	c1,0,1.9-0.1,2.9-0.3c3-0.7,6.1-0.6,9.2-0.6c7,0,13.9,0.1,20.9,0.2c0.5,0.4,1,0.3,1.5,0.3c3.4-0.1,6.8-0.1,10.2-0.2
	c1.4,0,2.8,0.1,4.2,0.2c0.9,0.1,1.8,0.6,2.7,0.1c1-0.3,1.9-0.1,2.7,0.3c0.8,0.4,1.6,0.7,2.5,0.5c0,0,0,0,0,0
	c0.8,0.6,1.8,0.4,2.7,0.5c0.6,0.6,1.4,0.4,2.2,0.5c0.2,0.1,0.4,0.3,0.7,0.3c0.2,0,0.5-0.1,0.7-0.2c-0.1-0.2-0.2-0.4-0.4-0.6
	c-0.1-0.1-0.3-0.1-0.5-0.1l0,0h0c-0.5,0-0.9,0-1.4-0.1h0c-0.8-1.2-0.8-1.2,0-2c0.1-0.1,0.1-0.1,0.2-0.2c0.7-0.8,0.8-1,0-1.8
	c-0.3-0.4-0.5-0.7-0.4-1.1h0c0.7-0.1,1.3-0.1,2-0.2c0.7,0.6,1.5,0.5,2.3,0.4c1,0,2.1-0.2,3.1,0.3c2,0.9,4.1,1.1,6.2,1.1c0,0,0,0,0,0
	c0.6,0.5,1.3,0.3,1.9,0.4c1,0.1,2,0.2,3,0.4c0.3,0.5,0.5,0.9,0.2,1.5c-0.2,0.3-0.1,0.7,0.3,0.9c0.6,0.3,1.3,0.5,1.7,0
	c0.5-0.5-0.4-0.8-0.6-1.2c-0.1-0.1-0.1-0.3-0.2-0.5c0.5-0.5,1.2-0.2,1.7-0.3l0,0c0.7,0.7,1.4,1.3,2.5,0.8c0.4-0.2,0.8-0.1,1.3,0
	c1.4,0.2,2.7,0.2,4.1-0.2c0.4-0.1,0.8-0.1,1.2,0.1c0.1,0.5,0.1,1,0.2,1.5c0,0.1,0.3,0.2,0.4,0.2c0.1,0,0.4-0.2,0.4-0.3
	c0-0.5,0-1,0.1-1.5h0l0,0c1.1-0.7,2.4-0.5,3.6-0.4c0.8,0,1.6,0.1,2.3-0.4c1.4-0.8,2.9-0.8,4.4-0.5c2.4,0.4,4.9,0.5,7.3,1.1
	c1.7,0.4,3.5,0.5,5.2,0.7c0.6,0.1,1-0.3,1.3-0.7c-0.5,0-1,0-1.4-0.2c0.5,0,0.9,0.1,1.4,0.2c2.2,0.2,4.4,0.9,6.7,0.7
	c0.3,0,0.7,0,1,0.2c1.7,0.7,3.6,0.6,5.4,0.8c0.4,0.4,0.9,0.5,1.4,0.5c0.8,0,1.5,0,2.3,0c1.4,0.6,2.8,0.3,4.3,0.4l0,0l0,0
	c3.9,0.9,7.8,1.3,11.8,1.7l0,0c1.3,0.3,2.5,0.6,3.8,0.9c0.3,0.1,0.7,0.4,0.8,0.6c0.1,0.8,0.6,1,1.2,0.9c1.1-0.1,2.2,0.3,3.3,0.4h0
	c3.6,1.4,7.2,1.5,10.6-0.6c1.8-0.5,3.5-1,4.6-2.7c0.3-0.4,0.8-0.6,1.4-0.7l0,0c0.4-0.1,0.9-0.2,1.3-0.1c1.5,0.3,2.9,0.1,4.3,0
	c0,0,0,0,0,0c0,0,0,0,0,0c0.2,0.1,0.6,0.2,0.6,0.3c0.1,1.2,0.8,1.3,1.8,1.3c1.8,0,3.6-0.4,5.4-1c1.7-0.6,3.2-1.7,4.7-2.7
	c0.6-0.1,1-0.6,1.4-1c0.7-0.8,0.7-0.8-0.4-1.6c-0.2-0.8-0.6-1.2-1.4-1.3c-0.5,0-1,0.4-1.5-0.1c0.2-0.8,0.9-1.5,1.3-2.2
	c0.4,0,0.8-0.2,1-0.6l0,0c1-0.2,1.7-0.6,2.3-1.6c0.3-0.5,0.8-0.9,1.3-1.3c0.6-0.3,1.3-0.4,1.9-1c-1-0.1-1.8-0.2-2.4,0.5h0
	c-0.8,0.5-1.9,0.4-2.7,1.2c-0.2,0-0.3,0-0.4,0.1c-0.1-0.1-0.3-0.1-0.5-0.1c-0.2-0.6,0.1-1.5-1-1.6c-0.3,0-0.6-0.2-0.5-0.5
	c0.4-0.9-0.3-1.7-0.3-2.5l0,0c0.8-0.4,1.3-1.2,1.9-1.8c1-1,1.8-2.2,3.2-2.7c0.2-0.2,0.2-0.3,0.3-0.5c0.7-1.2,1.5-2.2,2.6-3.1
	c-1.1-1.3-2-2.6-3.7-2.8c-0.7-0.1-1.1-0.7-1.5-1.4c0.4,0,0.8-0.2,1-0.6c1.3,0.1,2.4-0.5,3.6-0.8c0.4-0.1,0.1-0.6,0.1-0.9v0
	c0.9-0.2,1.7-0.4,2.6-0.7c0.4,0.6,0.7,0,1,0c-0.3-0.4-0.6-0.5-1.1-0.4v0c0,0,0,0,0,0c-0.1,0-0.3-0.1-0.4-0.1
	c0.1-0.5,0.3-0.9,0.4-1.4l0,0c1.4-0.7,2.8-0.1,4.2-0.4c0.5,0.1,1,0.3,1.4,0.4c0.1,0,0.3-0.1,0.4-0.2C297.1-63.1,297-63.3,296.9-63.4
	z"/>
</svg>
